{"title":"DHOOM 3 Trailer - Aamir Khan 1080p {GreatPalash}.MP4","uid":9122083,"size":85385405,"categoryP":"video","categoryS":"movie_clips","magnet":"?xt=urn:btih:f1111fe1938ff78f965feaf91fbe755c95aa497d&amp;dn=DHOOM+3+Trailer+-+Aamir+Khan+1080p+%7BGreatPalash%7D.MP4&amp;tr=udp%3A%2F%2Ftracker.openbittorrent.com%3A80&amp;tr=udp%3A%2F%2Fopen.demonii.com%3A1337&amp;tr=udp%3A%2F%2Ftracker.coppersurfer.tk%3A6969&amp;tr=udp%3A%2F%2Fexodus.desync.com%3A6969","seeders":1,"leechers":0,"uploader":"Palash995","files":1,"time":1383155233,"description":"Presenting the DHOOM:3 Theatrical Trailer of the most awaited film of 2013 - DHOOM:3. Starring Aamir Khan, Abhishek Bachchan, Katrina Kaif &amp; Uday Chopra.\n\nDHOOM:3 Film releases on 20th December 2013.\n\nProduced by Aditya Chopra, DHOOM:3 is written and directed by Vijay Krishna Acharya, who had also written DHOOM &amp; DHOOM:2. Apart from Aamir Khan, who plays the anti-hero in the film, and Katrina Kaif, both Abhishek Bachchan and Uday Chopra will continue in their now iconic roles of Jai Dixit and Ali.\n\nScreenshots:-\n &lt;a href=&quot;\nhttp://img31.imageshack.us/img31/3710/7e1o.jpg&quot; rel=&quot;nofollow&quot; target=&quot;_NEW&quot;&gt;\nhttp://img31.imageshack.us/img31/3710/7e1o.jpg&lt;/a&gt;\n\n &lt;a href=&quot;\nhttp://img837.imageshack.us/img837/6563/a7wk.jpg&quot; rel=&quot;nofollow&quot; target=&quot;_NEW&quot;&gt;\nhttp://img837.imageshack.us/img837/6563/a7wk.jpg&lt;/a&gt;\n &lt;a href=&quot;\nhttp://img9.imageshack.us/img9/8830/xkte.jpg&quot; rel=&quot;nofollow&quot; target=&quot;_NEW&quot;&gt;\nhttp://img9.imageshack.us/img9/8830/xkte.jpg&lt;/a&gt;\n &lt;a href=&quot;\nhttp://img201.imageshack.us/img201/1020/cbb5.jpg&quot; rel=&quot;nofollow&quot; target=&quot;_NEW&quot;&gt;\nhttp://img201.imageshack.us/img201/1020/cbb5.jpg&lt;/a&gt;\n\nMedia Info:-\n\nGeneral\nComplete name : DHOOM 3 Trailer - Aamir Khan 1080p {GreatPalash}.MP4\nFormat : MPEG-4\nFormat profile : Base Media\nCodec ID : isom\nFile size : 81.4 MiB\nDuration : 2mn 45s\nOverall bit rate mode : Variable\nOverall bit rate : 4 118 Kbps\nEncoded date : UTC 2013-10-29 10:00:53\nTagged date : UTC 2013-10-29 10:00:53\n\nVideo\nID : 1\nFormat : AVC\nFormat/Info : Advanced Video Codec\nFormat profile : &lt;a class=&quot;__cf_email__&quot; href=&quot;/cdn-cgi/l/email-protection&quot; data-cfemail=&quot;dc94b5bbb49c90e8f2ec&quot;&gt;[email&amp;#160;protected]&lt;/a&gt;&lt;script cf-hash='f9e31' type=&quot;text/javascript&quot;&gt;\n/* &lt;![CDATA[ */!function(){try{var t=&quot;currentScript&quot;in document?document.currentScript:function(){for(var t=document.getElementsByTagName(&quot;script&quot;),e=t.length;e--;)if(t[e].getAttribute(&quot;cf-hash&quot;))return t[e]}();if(t&amp;&amp;t.previousSibling){var e,r,n,i,c=t.previousSibling,a=c.getAttribute(&quot;data-cfemail&quot;);if(a){for(e=&quot;&quot;,r=parseInt(a.substr(0,2),16),n=2;a.length-n;n+=2)i=parseInt(a.substr(n,2),16)^r,e+=String.fromCharCode(i);e=document.createTextNode(e),c.parentNode.replaceChild(e,c)}}}catch(u){}}();/* ]]&gt; */&lt;/script&gt;\nFormat settings, CABAC : Yes\nFormat settings, ReFrames : 2 frames\nCodec ID : avc1\nCodec ID/Info : Advanced Video Coding\nDuration : 2mn 45s\nBit rate : 3 864 Kbps\nWidth : 1 920 pixels\nHeight : 1 080 pixels\nDisplay aspect ratio : 16:9\nFrame rate mode : Constant\nFrame rate : 24.000 fps\nColor space : YUV\nChroma subsampling : 4:2:0\nBit depth : 8 bits\nScan type : Progressive\nBits/(Pixel*Frame) : 0.078\nStream size : 76.4 MiB (94%)\nEncoded date : UTC 2013-10-29 10:00:53\nTagged date : UTC 2013-10-29 10:00:53\n\nAudio\nID : 2\nFormat : AAC\nFormat/Info : Advanced Audio Codec\nFormat profile : LC\nCodec ID : 40\nDuration : 2mn 45s\nBit rate mode : Variable\nBit rate : 254 Kbps\nChannel(s) : 2 channels\nChannel positions : Front: L R\nSampling rate : 44.1 KHz\nCompression mode : Lossy\nDelay relative to video : 42ms\nStream size : 5.01 MiB (6%)\nEncoded date : UTC 2013-10-29 10:00:35\nTagged date : UTC 2013-10-29 10:00:35\n &lt;a href=&quot;\nhttp://imageshack.us/a/img89/4822/zka.gif&quot; rel=&quot;nofollow&quot; target=&quot;_NEW&quot;&gt;\nhttp://imageshack.us/a/img89/4822/zka.gif&lt;/a&gt;\n &lt;a href=&quot;\nhttp://imageshack.us/a/img200/185/tj8.gif&quot; rel=&quot;nofollow&quot; target=&quot;_NEW&quot;&gt;\nhttp://imageshack.us/a/img200/185/tj8.gif&lt;/a&gt;\n &lt;a href=&quot;\nhttp://imageshack.us/a/img593/9603/ua8.gif&quot; rel=&quot;nofollow&quot; target=&quot;_NEW&quot;&gt;\nhttp://imageshack.us/a/img593/9603/ua8.gif&lt;/a&gt;\n &lt;a href=&quot;\nhttp://imageshack.us/a/img707/5608/ysmp.png&quot; rel=&quot;nofollow&quot; target=&quot;_NEW&quot;&gt;\nhttp://imageshack.us/a/img707/5608/ysmp.png&lt;/a&gt;\n &lt;a href=&quot;\nhttp://imageshack.us/a/img42/9563/3nt.gif&quot; rel=&quot;nofollow&quot; target=&quot;_NEW&quot;&gt;\nhttp://imageshack.us/a/img42/9563/3nt.gif&lt;/a&gt;\n","torrent":{"xt":"urn:btih:f1111fe1938ff78f965feaf91fbe755c95aa497d","amp;dn":"DHOOM+3+Trailer+-+Aamir+Khan+1080p+%7BGreatPalash%7D.MP4","amp;tr":["udp%3A%2F%2Ftracker.openbittorrent.com%3A80","udp%3A%2F%2Fopen.demonii.com%3A1337","udp%3A%2F%2Ftracker.coppersurfer.tk%3A6969","udp%3A%2F%2Fexodus.desync.com%3A6969"],"infoHash":"f1111fe1938ff78f965feaf91fbe755c95aa497d","infoHashBuffer":{"type":"Buffer","data":[241,17,31,225,147,143,247,143,150,95,234,249,31,190,117,92,149,170,73,125]},"announce":[],"urlList":[]}}